<?xml version="1.0" standalone="no"?>
<!DOCTYPE svg PUBLIC "-//W3C//DTD SVG 20010904//EN"
 "http://www.w3.org/TR/2001/REC-SVG-20010904/DTD/svg10.dtd">
<svg version="1.0" xmlns="http://www.w3.org/2000/svg"
 width="461.000000pt" height="330.000000pt" viewBox="0 0 461.000000 330.000000"
 preserveAspectRatio="xMidYMid meet">
<metadata>
Created by potrace 1.16, written by Peter Selinger 2001-2019
</metadata>
<g transform="translate(0.000000,330.000000) scale(0.100000,-0.100000)"
fill="#000000" stroke="none">
<path d="M2230 3050 c0 -56 -57 -110 -116 -110 -26 0 -86 51 -110 95 -10 17
-13 18 -28 6 -9 -8 -16 -28 -16 -48 0 -52 -54 -103 -108 -103 -34 0 -45 6 -76
40 -52 57 -66 53 -66 -18 0 -48 -4 -62 -26 -85 -50 -54 -102 -58 -156 -12 -36
30 -63 23 -53 -14 20 -78 18 -87 -18 -123 -47 -47 -76 -53 -131 -28 -73 33
-89 13 -44 -53 26 -37 17 -74 -32 -122 -34 -33 -42 -37 -72 -31 -90 19 -111 1
-64 -55 43 -51 32 -116 -28 -157 -27 -18 -41 -21 -74 -16 -59 9 -67 -16 -20
-60 l34 -32 109 5 110 6 32 55 c40 69 123 184 166 230 83 87 234 205 297 230
19 8 50 22 68 32 80 44 167 7 217 -91 39 -77 111 -122 205 -129 63 -4 72 -2
136 32 64 33 91 61 115 116 4 9 23 32 44 53 54 54 99 52 223 -10 52 -27 107
-60 123 -75 16 -16 33 -28 39 -28 17 0 220 -208 220 -225 0 -3 10 -16 23 -30
12 -14 38 -56 58 -93 l36 -67 114 -5 c110 -5 115 -4 147 20 21 16 32 32 30 45
-3 17 -9 20 -50 17 -42 -3 -51 0 -82 30 -48 46 -52 104 -11 152 36 42 28 51
-41 48 -53 -3 -62 0 -96 28 -48 39 -55 75 -28 128 31 59 9 81 -45 46 -36 -24
-91 -10 -133 32 -35 35 -37 46 -17 125 10 40 -17 43 -62 7 -31 -24 -45 -29
-75 -25 -63 8 -121 84 -98 127 16 31 12 47 -15 52 -14 3 -25 2 -25 -2 0 -4
-14 -22 -32 -39 -45 -44 -94 -43 -142 3 -28 26 -36 41 -36 68 0 43 -22 67 -45
48 -8 -7 -15 -18 -15 -25 0 -37 -69 -79 -115 -71 -40 8 -95 66 -95 101 0 20
-5 25 -25 25 -19 0 -25 -5 -25 -20z m40 -270 c0 -20 19 -30 56 -30 31 0 31
-17 0 -41 -21 -16 -23 -24 -16 -54 9 -38 4 -42 -26 -20 -26 20 -41 19 -75 -6
-32 -23 -34 -20 -17 27 11 31 10 35 -15 57 -34 29 -34 37 1 37 36 0 48 9 56
43 6 24 9 27 21 17 8 -7 15 -20 15 -30z"/>
<path d="M1852 2038 c-14 -14 -17 -704 -3 -727 7 -11 36 -14 137 -12 70 1 132
5 136 7 9 6 11 65 2 88 -5 13 -22 16 -79 16 -54 0 -78 4 -89 16 -14 13 -16 55
-16 309 0 281 -1 295 -19 305 -26 13 -54 13 -69 -2z"/>
<path d="M2144 1978 c7 -74 18 -155 35 -263 5 -33 14 -91 20 -130 31 -212 39
-264 45 -274 4 -6 24 -11 45 -11 l39 0 10 63 c6 34 16 98 22 142 10 77 36 155
50 155 15 0 29 -53 50 -188 12 -79 24 -150 27 -158 6 -17 79 -19 89 -3 3 6 10
43 15 83 5 39 13 107 19 151 5 44 21 157 34 250 31 209 32 231 7 245 -25 13
-34 13 -53 -2 -13 -10 -20 -46 -29 -151 -9 -102 -17 -144 -29 -160 l-17 -21
-16 30 c-8 16 -18 49 -22 74 -5 25 -10 52 -11 60 -2 8 -7 42 -12 75 -11 77
-26 105 -57 105 -30 0 -41 -20 -50 -85 -14 -114 -27 -191 -35 -210 -5 -11 -11
-28 -14 -38 -3 -10 -11 -17 -18 -15 -20 7 -33 63 -53 238 -11 90 -22 110 -63
110 l-35 0 7 -72z"/>
<path d="M2835 2035 c-39 -17 -69 -51 -84 -94 -7 -22 -11 -122 -11 -279 0
-244 0 -244 26 -292 31 -56 56 -70 130 -70 80 0 117 25 152 100 14 29 16 74
17 265 0 201 -2 236 -19 278 -33 86 -129 128 -211 92z m104 -131 c20 -25 21
-39 21 -237 0 -203 -1 -212 -22 -234 -12 -13 -26 -23 -32 -23 -18 0 -56 43
-56 65 0 11 -5 26 -11 32 -11 11 -7 295 6 350 8 35 39 73 60 73 7 0 23 -12 34
-26z"/>
<path d="M1558 2032 c-40 -3 -49 -7 -53 -25 -6 -29 -34 -195 -55 -337 -5 -30
-20 -118 -34 -195 -14 -77 -24 -146 -21 -153 3 -9 19 -12 47 -10 l43 3 6 50
c9 70 27 105 54 105 79 0 115 -32 115 -102 1 -48 21 -70 62 -66 l33 3 -3 70
c-2 39 -8 74 -13 79 -5 6 -9 31 -9 57 0 26 -4 51 -10 54 -5 3 -10 25 -10 47 0
23 -4 55 -9 72 -5 17 -17 83 -26 146 -31 212 -29 208 -117 202z"/>
<path d="M3165 2017 c-3 -6 -4 -165 -3 -352 l3 -340 38 -3 37 -3 0 135 c0 74
3 141 6 150 4 10 18 16 39 16 34 0 34 -1 59 -84 14 -46 26 -91 26 -99 0 -9 5
-19 10 -22 6 -3 10 -16 10 -28 0 -37 28 -67 61 -67 23 0 29 4 29 22 0 22 -3
34 -44 158 -41 127 -42 136 -8 175 35 40 49 111 37 201 -6 47 -14 64 -45 97
-33 36 -45 42 -96 48 -95 12 -154 10 -159 -4z m200 -123 c42 -45 28 -155 -20
-168 -40 -11 -83 -6 -89 10 -8 21 -8 169 1 177 3 4 24 7 45 7 29 0 45 -7 63
-26z"/>
<path d="M1042 2012 c-9 -6 -12 -86 -13 -337 -1 -381 -9 -355 105 -355 168 0
206 66 206 355 0 186 -11 243 -60 297 l-35 40 -95 4 c-52 3 -101 1 -108 -4z
m164 -119 c38 -34 44 -69 44 -231 l0 -157 -31 -38 c-24 -30 -37 -37 -65 -37
l-34 0 0 240 0 240 33 0 c19 0 43 -8 53 -17z"/>
<path d="M860 2001 c-8 -6 -42 -7 -75 -4 -112 10 -105 31 -105 -327 0 -299 1
-310 20 -320 12 -6 66 -9 132 -8 l113 3 3 31 c2 17 -3 35 -10 41 -7 6 -46 13
-87 16 -95 6 -103 15 -99 115 2 86 16 103 77 95 45 -6 81 10 81 37 0 33 -28
50 -84 50 -28 0 -57 5 -64 12 -13 13 -16 126 -4 146 12 17 68 32 125 32 l48 0
-3 43 c-3 37 -6 42 -28 45 -14 1 -32 -2 -40 -7z"/>
<path d="M3567 2003 c-4 -3 -7 -154 -7 -335 l0 -328 34 0 c42 0 46 9 46 117 0
88 18 149 47 160 25 10 39 -16 95 -185 24 -73 54 -100 87 -82 26 14 26 16 -5
97 -14 38 -35 93 -46 123 -11 30 -24 64 -28 75 -39 96 -41 133 -9 171 17 21
79 146 79 160 0 16 -27 25 -54 18 -15 -4 -36 -33 -70 -100 -71 -139 -96 -139
-96 3 0 45 -3 88 -6 97 -6 16 -54 22 -67 9z"/>
<path d="M3967 1956 c-25 -24 -36 -46 -40 -78 -11 -81 7 -114 135 -239 43 -42
78 -83 78 -90 0 -8 3 -23 5 -34 8 -29 -38 -75 -75 -75 -22 0 -36 9 -56 38 -16
20 -31 41 -34 45 -10 12 -60 -14 -60 -30 0 -8 9 -33 19 -57 26 -55 78 -81 151
-74 59 6 103 40 121 96 13 40 6 120 -13 152 -15 25 -86 99 -122 128 -40 31
-77 93 -70 116 9 28 42 56 67 56 18 0 67 -45 67 -62 0 -5 11 -8 25 -8 21 0 25
5 25 30 0 70 -60 120 -144 120 -38 0 -51 -5 -79 -34z"/>
<path d="M368 1973 c-32 -3 -51 -10 -57 -21 -5 -9 -9 -136 -10 -282 -2 -217 1
-269 12 -285 13 -16 19 -17 40 -8 25 11 25 14 23 111 -1 62 2 106 9 115 7 10
30 17 61 18 69 3 111 23 127 62 45 103 46 117 17 197 -28 77 -46 91 -116 95
-32 1 -80 1 -106 -2z m121 -109 c26 -21 31 -33 31 -68 0 -57 -27 -86 -80 -86
-28 0 -42 5 -49 18 -11 22 -3 131 12 150 16 20 53 14 86 -14z"/>
<path d="M1020 1203 c0 -7 -4 -13 -8 -13 -14 0 -52 -40 -52 -55 0 -11 13 -15
55 -15 60 0 86 -15 111 -62 22 -42 17 -80 -16 -120 -25 -31 -28 -38 -15 -48
11 -9 22 -9 46 -1 18 6 39 11 49 11 25 0 81 -51 97 -88 13 -31 12 -37 -10 -75
-36 -63 -21 -83 39 -52 60 31 127 7 160 -57 12 -24 14 -36 5 -55 -18 -39 -14
-73 8 -73 10 0 24 7 32 16 7 8 26 21 43 28 38 16 89 -2 124 -42 19 -23 21 -34
16 -79 -5 -51 -4 -53 19 -53 15 0 28 9 37 26 33 61 119 67 165 12 23 -28 30
-44 37 -93 5 -30 36 -31 47 -2 14 36 72 77 110 77 36 0 101 -52 101 -81 0 -55
43 -70 54 -18 9 45 66 99 106 99 51 0 86 -23 108 -73 19 -43 46 -32 53 21 8
61 51 102 109 105 39 1 46 -3 81 -42 52 -58 74 -51 64 18 -6 47 -5 52 28 88
31 33 41 38 80 38 35 0 50 -5 65 -22 24 -28 78 -33 68 -6 -4 9 -10 36 -13 59
-5 37 -2 46 27 78 43 46 84 55 138 27 33 -17 42 -18 51 -7 9 11 7 24 -10 55
-26 50 -20 83 24 129 24 25 39 32 68 32 21 0 41 -4 44 -10 10 -16 42 -12 49 6
8 21 9 17 -19 50 -42 49 -38 106 11 153 34 31 40 33 84 27 42 -6 48 -4 53 13
3 14 -6 28 -34 50 -37 30 -40 31 -148 31 -109 0 -110 0 -124 -27 -33 -65 -91
-153 -99 -153 -4 0 -8 -5 -8 -10 0 -16 -150 -176 -206 -220 -55 -42 -93 -70
-98 -70 -3 0 -25 -13 -49 -30 -25 -16 -50 -30 -56 -30 -6 0 -26 -9 -46 -20
-37 -21 -95 -27 -95 -10 0 6 -8 10 -18 10 -23 0 -64 43 -90 95 -34 69 -101
117 -178 129 -99 15 -206 -34 -254 -114 -36 -61 -60 -86 -103 -109 -57 -31
-60 -31 -202 42 -146 76 -336 256 -427 405 -31 52 -58 98 -60 104 -5 15 -228
16 -228 1z m1204 -514 c24 -19 27 -19 48 -5 35 25 44 20 40 -22 -3 -35 0 -41
30 -60 l33 -22 -40 0 c-44 0 -65 -14 -65 -41 0 -30 -24 -27 -40 5 -12 25 -23
32 -55 36 l-40 5 33 24 c34 24 37 37 17 84 -10 23 6 22 39 -4z"/>
</g>
</svg>
